<?xml version="1.0" encoding="UTF-8"?>
<svg width="644px" height="256px" viewBox="0 0 644 256" version="1.1" xmlns="http://www.w3.org/2000/svg" xmlns:xlink="http://www.w3.org/1999/xlink">
    <!-- Generator: Sketch 57.1 (83088) - https://sketch.com -->
    <title>Logo</title>
    <desc>Created with Sketch.</desc>
    <defs>
        <linearGradient x1="103.093206%" y1="46.6999475%" x2="8.39391927%" y2="50%" id="linearGradient-1">
            <stop stop-color="#4B11DD" offset="0%"></stop>
            <stop stop-color="#D76690" offset="68.0847377%"></stop>
            <stop stop-color="#EEBA78" offset="100%"></stop>
        </linearGradient>
    </defs>
    <g id="Logo" stroke="none" stroke-width="1" fill="none" fill-rule="evenodd">
        <rect id="Rectangle" x="0" y="0" width="644" height="256"></rect>
        <path d="M124.501466,70 C139.54553,70 151.998484,73.944405 161.860704,81.8333333 C171.722923,89.7222617 178.102625,100.388822 181,113.833333 L150.744868,113.833333 C148.516118,108.388862 145.089466,104.111127 140.464809,101 C135.840153,97.8888733 130.351938,96.3333333 124,96.3333333 C115.642187,96.3333333 108.900319,99.3888583 103.774194,105.5 C98.6480682,111.611142 96.085044,119.777727 96.085044,130 C96.085044,140.222273 98.6480682,148.361081 103.774194,154.416667 C108.900319,160.472253 115.642187,163.5 124,163.5 C130.351938,163.5 135.840153,161.94446 140.464809,158.833333 C145.089466,155.722207 148.516118,151.500027 150.744868,146.166667 L181,146.166667 C178.102625,159.500067 171.722923,170.138849 161.860704,178.083333 C151.998484,186.027818 139.54553,190 124.501466,190 C113.023403,190 102.93846,187.472248 94.2463343,182.416667 C85.5542087,177.361086 78.8401996,170.277823 74.1041056,161.166667 C69.3680115,152.05551 67,141.666725 67,130 C67,118.333275 69.3680115,107.94449 74.1041056,98.8333333 C78.8401996,89.7221767 85.5542087,82.6389142 94.2463343,77.5833333 C102.93846,72.5277525 113.023403,70 124.501466,70 Z M223.982786,96 L246.42097,153.276699 L267.352113,96 L299,96 L240.7277,234 L209.247261,234 L231.183099,185.934466 L192,96 L223.982786,96 Z M371.901528,95.2838019 C379.555217,95.2838019 386.40461,97.2081468 392.449915,101.056894 C398.49522,104.905642 403.264838,110.427675 406.758913,117.623159 C410.252989,124.818644 412,133.324806 412,143.141901 C412,152.847438 410.252989,161.325711 406.758913,168.576975 C403.264838,175.828238 398.49522,181.37816 392.449915,185.226908 C386.40461,189.075655 379.555217,191 371.901528,191 C364.802455,191 358.70178,189.382435 353.599321,186.147256 C348.496862,182.912077 344.780996,178.505606 342.451613,172.927711 L342.451613,189.828648 L314,189.828648 L314,66 L342.451613,66 L342.451613,113.356091 C344.780996,107.778196 348.496862,103.371725 353.599321,100.136546 C358.70178,96.9013671 364.802455,95.2838019 371.901528,95.2838019 Z M362.583673,120 C356.559154,120 351.622468,122.012848 347.773469,126.038603 C343.924471,130.064358 342,135.551436 342,142.5 C342,149.338269 343.924471,154.797774 347.773469,158.878676 C351.622468,162.959579 356.559154,165 362.583673,165 C368.719759,165 373.656444,163.014706 377.393878,159.044118 C381.131311,155.07351 383,149.558859 383,142.5 C383,135.441141 381.131311,129.926471 377.393878,125.955882 C373.656444,121.985274 368.719759,120 362.583673,120 Z M430,70.0837989 C430,65.7262352 431.55554,62.1229193 434.666667,59.273743 C437.777793,56.4245668 441.888863,55 447,55 C452.111137,55 456.222207,56.4245668 459.333333,59.273743 C462.44446,62.1229193 464,65.7262352 464,70.0837989 C464,74.3296302 462.44446,77.8770807 459.333333,80.726257 C456.222207,83.5754332 452.111137,85 447,85 C441.888863,85 437.777793,83.5754332 434.666667,80.726257 C431.55554,77.8770807 430,74.3296302 430,70.0837989 Z M462,96 L462,189 L433,189 L433,96 L462,96 Z M545,189 L526,162.5 L510.5,189 L479.166667,189 L510,140.5 L478,96 L510,96 L528.833333,122.166667 L544.333333,96 L575.666667,96 L544.166667,143.333333 L577,189 L545,189 Z" id="Cybix" fill="url(#linearGradient-1)" fill-rule="nonzero"></path>
    </g>
</svg>